<mxfile host="Electron" agent="Mozilla/5.0 (Windows NT 10.0; Win64; x64) AppleWebKit/537.36 (KHTML, like Gecko) draw.io/24.7.17 Chrome/128.0.6613.36 Electron/32.0.1 Safari/537.36" version="24.7.17">
  <diagram name="PÃ¡gina-1" id="CdG76xOjGBxwWQExev__">
    <mxGraphModel dx="1257" dy="760" grid="1" gridSize="10" guides="1" tooltips="1" connect="1" arrows="1" fold="1" page="1" pageScale="1" pageWidth="827" pageHeight="1169" math="0" shadow="0">
      <root>
        <mxCell id="0" />
        <mxCell id="1" parent="0" />
        <mxCell id="elCO9cuXg_3gXJ9YmErS-14" value="" style="endArrow=none;html=1;rounded=0;" edge="1" parent="1">
          <mxGeometry width="50" height="50" relative="1" as="geometry">
            <mxPoint x="75" y="650" as="sourcePoint" />
            <mxPoint x="75" y="570" as="targetPoint" />
          </mxGeometry>
        </mxCell>
        <mxCell id="elCO9cuXg_3gXJ9YmErS-15" value="" style="endArrow=classic;html=1;rounded=0;" edge="1" parent="1">
          <mxGeometry width="50" height="50" relative="1" as="geometry">
            <mxPoint x="75" y="610" as="sourcePoint" />
            <mxPoint x="135" y="610" as="targetPoint" />
          </mxGeometry>
        </mxCell>
        <mxCell id="elCO9cuXg_3gXJ9YmErS-16" value="" style="endArrow=none;html=1;rounded=0;" edge="1" parent="1">
          <mxGeometry width="50" height="50" relative="1" as="geometry">
            <mxPoint x="75" y="450" as="sourcePoint" />
            <mxPoint x="75" y="370" as="targetPoint" />
          </mxGeometry>
        </mxCell>
        <mxCell id="elCO9cuXg_3gXJ9YmErS-17" value="" style="endArrow=classic;html=1;rounded=0;" edge="1" parent="1">
          <mxGeometry width="50" height="50" relative="1" as="geometry">
            <mxPoint x="75" y="410" as="sourcePoint" />
            <mxPoint x="135" y="410" as="targetPoint" />
          </mxGeometry>
        </mxCell>
        <mxCell id="elCO9cuXg_3gXJ9YmErS-18" value="" style="endArrow=none;html=1;rounded=0;" edge="1" parent="1">
          <mxGeometry width="50" height="50" relative="1" as="geometry">
            <mxPoint x="75" y="250" as="sourcePoint" />
            <mxPoint x="75" y="170" as="targetPoint" />
          </mxGeometry>
        </mxCell>
        <mxCell id="elCO9cuXg_3gXJ9YmErS-19" value="" style="endArrow=classic;html=1;rounded=0;" edge="1" parent="1">
          <mxGeometry width="50" height="50" relative="1" as="geometry">
            <mxPoint x="75" y="210" as="sourcePoint" />
            <mxPoint x="135" y="210" as="targetPoint" />
          </mxGeometry>
        </mxCell>
        <mxCell id="elCO9cuXg_3gXJ9YmErS-20" value="Ingresa&lt;div&gt;Vehiculo&lt;/div&gt;&lt;div&gt;Acceso 1&lt;/div&gt;" style="text;html=1;align=center;verticalAlign=middle;resizable=0;points=[];autosize=1;strokeColor=none;fillColor=none;" vertex="1" parent="1">
          <mxGeometry x="70" y="120" width="70" height="60" as="geometry" />
        </mxCell>
        <mxCell id="elCO9cuXg_3gXJ9YmErS-21" value="Ingresa&lt;div&gt;Vehiculo&lt;/div&gt;&lt;div&gt;Acceso 2&lt;/div&gt;" style="text;html=1;align=center;verticalAlign=middle;resizable=0;points=[];autosize=1;strokeColor=none;fillColor=none;" vertex="1" parent="1">
          <mxGeometry x="75" y="340" width="70" height="60" as="geometry" />
        </mxCell>
        <mxCell id="elCO9cuXg_3gXJ9YmErS-22" value="Ingresa&lt;div&gt;Vehiculo&lt;/div&gt;&lt;div&gt;Acceso 3&lt;/div&gt;" style="text;html=1;align=center;verticalAlign=middle;resizable=0;points=[];autosize=1;strokeColor=none;fillColor=none;" vertex="1" parent="1">
          <mxGeometry x="85" y="530" width="70" height="60" as="geometry" />
        </mxCell>
        <mxCell id="elCO9cuXg_3gXJ9YmErS-23" value="" style="ellipse;whiteSpace=wrap;html=1;aspect=fixed;" vertex="1" parent="1">
          <mxGeometry x="135.0000000000001" y="190" width="40" height="40" as="geometry" />
        </mxCell>
        <mxCell id="elCO9cuXg_3gXJ9YmErS-24" value="" style="endArrow=none;html=1;rounded=0;" edge="1" parent="1">
          <mxGeometry width="50" height="50" relative="1" as="geometry">
            <mxPoint x="235.0000000000001" y="250" as="sourcePoint" />
            <mxPoint x="235.0000000000001" y="170" as="targetPoint" />
          </mxGeometry>
        </mxCell>
        <mxCell id="elCO9cuXg_3gXJ9YmErS-25" value="" style="endArrow=classic;html=1;rounded=0;" edge="1" parent="1">
          <mxGeometry width="50" height="50" relative="1" as="geometry">
            <mxPoint x="235.0000000000001" y="210" as="sourcePoint" />
            <mxPoint x="295.0000000000001" y="210" as="targetPoint" />
          </mxGeometry>
        </mxCell>
        <mxCell id="elCO9cuXg_3gXJ9YmErS-26" value="" style="endArrow=classic;html=1;rounded=0;" edge="1" parent="1">
          <mxGeometry width="50" height="50" relative="1" as="geometry">
            <mxPoint x="175.0000000000001" y="209.57999999999998" as="sourcePoint" />
            <mxPoint x="235.0000000000001" y="210" as="targetPoint" />
          </mxGeometry>
        </mxCell>
        <mxCell id="elCO9cuXg_3gXJ9YmErS-27" value="" style="ellipse;whiteSpace=wrap;html=1;aspect=fixed;" vertex="1" parent="1">
          <mxGeometry x="135.0000000000001" y="390" width="40" height="40" as="geometry" />
        </mxCell>
        <mxCell id="elCO9cuXg_3gXJ9YmErS-28" value="" style="endArrow=none;html=1;rounded=0;" edge="1" parent="1">
          <mxGeometry width="50" height="50" relative="1" as="geometry">
            <mxPoint x="235.0000000000001" y="450" as="sourcePoint" />
            <mxPoint x="235.0000000000001" y="370" as="targetPoint" />
          </mxGeometry>
        </mxCell>
        <mxCell id="elCO9cuXg_3gXJ9YmErS-29" value="" style="endArrow=classic;html=1;rounded=0;" edge="1" parent="1">
          <mxGeometry width="50" height="50" relative="1" as="geometry">
            <mxPoint x="235.0000000000001" y="410" as="sourcePoint" />
            <mxPoint x="295.0000000000001" y="410" as="targetPoint" />
          </mxGeometry>
        </mxCell>
        <mxCell id="elCO9cuXg_3gXJ9YmErS-30" value="" style="endArrow=classic;html=1;rounded=0;" edge="1" parent="1">
          <mxGeometry width="50" height="50" relative="1" as="geometry">
            <mxPoint x="175.0000000000001" y="409.58" as="sourcePoint" />
            <mxPoint x="235.0000000000001" y="410" as="targetPoint" />
          </mxGeometry>
        </mxCell>
        <mxCell id="elCO9cuXg_3gXJ9YmErS-31" value="" style="ellipse;whiteSpace=wrap;html=1;aspect=fixed;" vertex="1" parent="1">
          <mxGeometry x="135.0000000000001" y="590" width="40" height="40" as="geometry" />
        </mxCell>
        <mxCell id="elCO9cuXg_3gXJ9YmErS-32" value="" style="endArrow=none;html=1;rounded=0;" edge="1" parent="1">
          <mxGeometry width="50" height="50" relative="1" as="geometry">
            <mxPoint x="235.0000000000001" y="650" as="sourcePoint" />
            <mxPoint x="235.0000000000001" y="570" as="targetPoint" />
          </mxGeometry>
        </mxCell>
        <mxCell id="elCO9cuXg_3gXJ9YmErS-33" value="" style="endArrow=classic;html=1;rounded=0;" edge="1" parent="1">
          <mxGeometry width="50" height="50" relative="1" as="geometry">
            <mxPoint x="235.0000000000001" y="610" as="sourcePoint" />
            <mxPoint x="295.0000000000001" y="610" as="targetPoint" />
          </mxGeometry>
        </mxCell>
        <mxCell id="elCO9cuXg_3gXJ9YmErS-34" value="" style="endArrow=classic;html=1;rounded=0;" edge="1" parent="1">
          <mxGeometry width="50" height="50" relative="1" as="geometry">
            <mxPoint x="175.0000000000001" y="609.5799999999999" as="sourcePoint" />
            <mxPoint x="235.0000000000001" y="610" as="targetPoint" />
          </mxGeometry>
        </mxCell>
        <mxCell id="elCO9cuXg_3gXJ9YmErS-35" value="Esperando&lt;div&gt;Atencion A1&lt;/div&gt;" style="text;html=1;align=center;verticalAlign=middle;resizable=0;points=[];autosize=1;strokeColor=none;fillColor=none;" vertex="1" parent="1">
          <mxGeometry x="110" y="240" width="90" height="40" as="geometry" />
        </mxCell>
        <mxCell id="elCO9cuXg_3gXJ9YmErS-36" value="Esperando&lt;div&gt;Atencion A2&lt;/div&gt;" style="text;html=1;align=center;verticalAlign=middle;resizable=0;points=[];autosize=1;strokeColor=none;fillColor=none;" vertex="1" parent="1">
          <mxGeometry x="105" y="430" width="90" height="40" as="geometry" />
        </mxCell>
        <mxCell id="elCO9cuXg_3gXJ9YmErS-37" value="Esperando&lt;div&gt;Atencion A3&lt;/div&gt;" style="text;html=1;align=center;verticalAlign=middle;resizable=0;points=[];autosize=1;strokeColor=none;fillColor=none;" vertex="1" parent="1">
          <mxGeometry x="110" y="635" width="90" height="40" as="geometry" />
        </mxCell>
        <mxCell id="elCO9cuXg_3gXJ9YmErS-38" value="Comienza&lt;div&gt;Atencion&lt;/div&gt;&lt;div&gt;Cabina 1&lt;/div&gt;" style="text;html=1;align=center;verticalAlign=middle;resizable=0;points=[];autosize=1;strokeColor=none;fillColor=none;" vertex="1" parent="1">
          <mxGeometry x="225" y="120" width="80" height="60" as="geometry" />
        </mxCell>
        <mxCell id="elCO9cuXg_3gXJ9YmErS-39" value="" style="ellipse;whiteSpace=wrap;html=1;aspect=fixed;" vertex="1" parent="1">
          <mxGeometry x="295.0000000000001" y="190" width="40" height="40" as="geometry" />
        </mxCell>
        <mxCell id="elCO9cuXg_3gXJ9YmErS-40" value="" style="endArrow=none;html=1;rounded=0;" edge="1" parent="1">
          <mxGeometry width="50" height="50" relative="1" as="geometry">
            <mxPoint x="395.0000000000001" y="250" as="sourcePoint" />
            <mxPoint x="395.0000000000001" y="170" as="targetPoint" />
          </mxGeometry>
        </mxCell>
        <mxCell id="elCO9cuXg_3gXJ9YmErS-41" value="" style="endArrow=classic;html=1;rounded=0;entryX=0;entryY=0.5;entryDx=0;entryDy=0;" edge="1" parent="1" target="elCO9cuXg_3gXJ9YmErS-69">
          <mxGeometry width="50" height="50" relative="1" as="geometry">
            <mxPoint x="395.0000000000001" y="210" as="sourcePoint" />
            <mxPoint x="455" y="390" as="targetPoint" />
          </mxGeometry>
        </mxCell>
        <mxCell id="elCO9cuXg_3gXJ9YmErS-42" value="" style="endArrow=classic;html=1;rounded=0;" edge="1" parent="1">
          <mxGeometry width="50" height="50" relative="1" as="geometry">
            <mxPoint x="335.0000000000001" y="209.57999999999998" as="sourcePoint" />
            <mxPoint x="395.0000000000001" y="210" as="targetPoint" />
          </mxGeometry>
        </mxCell>
        <mxCell id="elCO9cuXg_3gXJ9YmErS-43" value="" style="ellipse;whiteSpace=wrap;html=1;aspect=fixed;" vertex="1" parent="1">
          <mxGeometry x="295.0000000000001" y="390" width="40" height="40" as="geometry" />
        </mxCell>
        <mxCell id="elCO9cuXg_3gXJ9YmErS-44" value="" style="endArrow=none;html=1;rounded=0;" edge="1" parent="1">
          <mxGeometry width="50" height="50" relative="1" as="geometry">
            <mxPoint x="395.0000000000001" y="450" as="sourcePoint" />
            <mxPoint x="395.0000000000001" y="370" as="targetPoint" />
          </mxGeometry>
        </mxCell>
        <mxCell id="elCO9cuXg_3gXJ9YmErS-45" value="" style="endArrow=classic;html=1;rounded=0;entryX=0;entryY=0.5;entryDx=0;entryDy=0;" edge="1" parent="1" target="elCO9cuXg_3gXJ9YmErS-69">
          <mxGeometry width="50" height="50" relative="1" as="geometry">
            <mxPoint x="395.0000000000001" y="410" as="sourcePoint" />
            <mxPoint x="455.0000000000001" y="410" as="targetPoint" />
          </mxGeometry>
        </mxCell>
        <mxCell id="elCO9cuXg_3gXJ9YmErS-46" value="" style="endArrow=classic;html=1;rounded=0;" edge="1" parent="1">
          <mxGeometry width="50" height="50" relative="1" as="geometry">
            <mxPoint x="335.0000000000001" y="409.58" as="sourcePoint" />
            <mxPoint x="395.0000000000001" y="410" as="targetPoint" />
          </mxGeometry>
        </mxCell>
        <mxCell id="elCO9cuXg_3gXJ9YmErS-47" value="" style="ellipse;whiteSpace=wrap;html=1;aspect=fixed;" vertex="1" parent="1">
          <mxGeometry x="295.0000000000001" y="590" width="40" height="40" as="geometry" />
        </mxCell>
        <mxCell id="elCO9cuXg_3gXJ9YmErS-48" value="" style="endArrow=none;html=1;rounded=0;" edge="1" parent="1">
          <mxGeometry width="50" height="50" relative="1" as="geometry">
            <mxPoint x="395.0000000000001" y="650" as="sourcePoint" />
            <mxPoint x="395.0000000000001" y="570" as="targetPoint" />
          </mxGeometry>
        </mxCell>
        <mxCell id="elCO9cuXg_3gXJ9YmErS-49" value="" style="endArrow=classic;html=1;rounded=0;entryX=0;entryY=0.5;entryDx=0;entryDy=0;" edge="1" parent="1" target="elCO9cuXg_3gXJ9YmErS-69">
          <mxGeometry width="50" height="50" relative="1" as="geometry">
            <mxPoint x="395.0000000000001" y="610" as="sourcePoint" />
            <mxPoint x="445" y="430" as="targetPoint" />
          </mxGeometry>
        </mxCell>
        <mxCell id="elCO9cuXg_3gXJ9YmErS-50" value="" style="endArrow=classic;html=1;rounded=0;" edge="1" parent="1">
          <mxGeometry width="50" height="50" relative="1" as="geometry">
            <mxPoint x="335.0000000000001" y="609.5799999999999" as="sourcePoint" />
            <mxPoint x="395.0000000000001" y="610" as="targetPoint" />
          </mxGeometry>
        </mxCell>
        <mxCell id="elCO9cuXg_3gXJ9YmErS-51" value="Comienza&lt;div&gt;Atencion&lt;/div&gt;&lt;div&gt;Cabina 2&lt;/div&gt;" style="text;html=1;align=center;verticalAlign=middle;resizable=0;points=[];autosize=1;strokeColor=none;fillColor=none;" vertex="1" parent="1">
          <mxGeometry x="225" y="340" width="80" height="60" as="geometry" />
        </mxCell>
        <mxCell id="elCO9cuXg_3gXJ9YmErS-52" value="Comienza&lt;div&gt;Atencion&lt;/div&gt;&lt;div&gt;Cabina 3&lt;/div&gt;" style="text;html=1;align=center;verticalAlign=middle;resizable=0;points=[];autosize=1;strokeColor=none;fillColor=none;" vertex="1" parent="1">
          <mxGeometry x="225" y="540" width="80" height="60" as="geometry" />
        </mxCell>
        <mxCell id="elCO9cuXg_3gXJ9YmErS-53" value="Solicitando&lt;div&gt;Documentacion&lt;/div&gt;" style="text;html=1;align=center;verticalAlign=middle;resizable=0;points=[];autosize=1;strokeColor=none;fillColor=none;" vertex="1" parent="1">
          <mxGeometry x="260" y="230" width="110" height="40" as="geometry" />
        </mxCell>
        <mxCell id="elCO9cuXg_3gXJ9YmErS-54" value="Solicitando&lt;div&gt;Documentacion 2&lt;/div&gt;" style="text;html=1;align=center;verticalAlign=middle;resizable=0;points=[];autosize=1;strokeColor=none;fillColor=none;" vertex="1" parent="1">
          <mxGeometry x="250" y="430" width="120" height="40" as="geometry" />
        </mxCell>
        <mxCell id="elCO9cuXg_3gXJ9YmErS-55" value="Solicitando&lt;div&gt;Documentacion 3&lt;/div&gt;" style="text;html=1;align=center;verticalAlign=middle;resizable=0;points=[];autosize=1;strokeColor=none;fillColor=none;" vertex="1" parent="1">
          <mxGeometry x="255" y="635" width="120" height="40" as="geometry" />
        </mxCell>
        <mxCell id="elCO9cuXg_3gXJ9YmErS-56" style="edgeStyle=orthogonalEdgeStyle;rounded=0;orthogonalLoop=1;jettySize=auto;html=1;curved=1;" edge="1" source="elCO9cuXg_3gXJ9YmErS-58" parent="1">
          <mxGeometry relative="1" as="geometry">
            <mxPoint x="225" y="190" as="targetPoint" />
          </mxGeometry>
        </mxCell>
        <mxCell id="elCO9cuXg_3gXJ9YmErS-57" style="edgeStyle=orthogonalEdgeStyle;rounded=0;orthogonalLoop=1;jettySize=auto;html=1;curved=1;endArrow=none;endFill=0;startArrow=classic;startFill=1;" edge="1" source="elCO9cuXg_3gXJ9YmErS-58" parent="1">
          <mxGeometry relative="1" as="geometry">
            <mxPoint x="405" y="190" as="targetPoint" />
          </mxGeometry>
        </mxCell>
        <mxCell id="elCO9cuXg_3gXJ9YmErS-58" value="O" style="ellipse;whiteSpace=wrap;html=1;aspect=fixed;" vertex="1" parent="1">
          <mxGeometry x="295" y="90" width="40" height="40" as="geometry" />
        </mxCell>
        <mxCell id="elCO9cuXg_3gXJ9YmErS-59" value="Cabina 1 Libre" style="text;html=1;align=center;verticalAlign=middle;resizable=0;points=[];autosize=1;strokeColor=none;fillColor=none;" vertex="1" parent="1">
          <mxGeometry x="265" y="60" width="100" height="30" as="geometry" />
        </mxCell>
        <mxCell id="elCO9cuXg_3gXJ9YmErS-61" style="edgeStyle=orthogonalEdgeStyle;rounded=0;orthogonalLoop=1;jettySize=auto;html=1;curved=1;" edge="1" source="elCO9cuXg_3gXJ9YmErS-63" parent="1">
          <mxGeometry relative="1" as="geometry">
            <mxPoint x="225" y="400" as="targetPoint" />
          </mxGeometry>
        </mxCell>
        <mxCell id="elCO9cuXg_3gXJ9YmErS-62" style="edgeStyle=orthogonalEdgeStyle;rounded=0;orthogonalLoop=1;jettySize=auto;html=1;curved=1;endArrow=none;endFill=0;startArrow=classic;startFill=1;" edge="1" source="elCO9cuXg_3gXJ9YmErS-63" parent="1">
          <mxGeometry relative="1" as="geometry">
            <mxPoint x="405" y="400" as="targetPoint" />
          </mxGeometry>
        </mxCell>
        <mxCell id="elCO9cuXg_3gXJ9YmErS-63" value="O" style="ellipse;whiteSpace=wrap;html=1;aspect=fixed;" vertex="1" parent="1">
          <mxGeometry x="290" y="300" width="40" height="40" as="geometry" />
        </mxCell>
        <mxCell id="elCO9cuXg_3gXJ9YmErS-64" value="Cabina 2 Libre" style="text;html=1;align=center;verticalAlign=middle;resizable=0;points=[];autosize=1;strokeColor=none;fillColor=none;" vertex="1" parent="1">
          <mxGeometry x="265" y="270" width="100" height="30" as="geometry" />
        </mxCell>
        <mxCell id="elCO9cuXg_3gXJ9YmErS-65" style="edgeStyle=orthogonalEdgeStyle;rounded=0;orthogonalLoop=1;jettySize=auto;html=1;curved=1;" edge="1" source="elCO9cuXg_3gXJ9YmErS-67" parent="1">
          <mxGeometry relative="1" as="geometry">
            <mxPoint x="225" y="600" as="targetPoint" />
          </mxGeometry>
        </mxCell>
        <mxCell id="elCO9cuXg_3gXJ9YmErS-66" style="edgeStyle=orthogonalEdgeStyle;rounded=0;orthogonalLoop=1;jettySize=auto;html=1;curved=1;endArrow=none;endFill=0;startArrow=classic;startFill=1;" edge="1" source="elCO9cuXg_3gXJ9YmErS-67" parent="1">
          <mxGeometry relative="1" as="geometry">
            <mxPoint x="405" y="600" as="targetPoint" />
          </mxGeometry>
        </mxCell>
        <mxCell id="elCO9cuXg_3gXJ9YmErS-67" value="O" style="ellipse;whiteSpace=wrap;html=1;aspect=fixed;" vertex="1" parent="1">
          <mxGeometry x="295" y="510" width="40" height="40" as="geometry" />
        </mxCell>
        <mxCell id="elCO9cuXg_3gXJ9YmErS-68" value="Cabina 3 Libre" style="text;html=1;align=center;verticalAlign=middle;resizable=0;points=[];autosize=1;strokeColor=none;fillColor=none;" vertex="1" parent="1">
          <mxGeometry x="260" y="480" width="100" height="30" as="geometry" />
        </mxCell>
        <mxCell id="elCO9cuXg_3gXJ9YmErS-69" value="" style="ellipse;whiteSpace=wrap;html=1;aspect=fixed;" vertex="1" parent="1">
          <mxGeometry x="475" y="390" width="40" height="40" as="geometry" />
        </mxCell>
        <mxCell id="elCO9cuXg_3gXJ9YmErS-70" value="Vehiculos&lt;div&gt;Esperando&lt;/div&gt;&lt;div&gt;Evaluacion&lt;/div&gt;" style="text;html=1;align=center;verticalAlign=middle;resizable=0;points=[];autosize=1;strokeColor=none;fillColor=none;" vertex="1" parent="1">
          <mxGeometry x="455" y="430" width="80" height="60" as="geometry" />
        </mxCell>
        <mxCell id="elCO9cuXg_3gXJ9YmErS-74" value="" style="endArrow=none;html=1;rounded=0;" edge="1" parent="1">
          <mxGeometry width="50" height="50" relative="1" as="geometry">
            <mxPoint x="75.00000000000011" y="250" as="sourcePoint" />
            <mxPoint x="75.00000000000011" y="170" as="targetPoint" />
          </mxGeometry>
        </mxCell>
        <mxCell id="elCO9cuXg_3gXJ9YmErS-75" value="" style="endArrow=classic;html=1;rounded=0;" edge="1" parent="1">
          <mxGeometry width="50" height="50" relative="1" as="geometry">
            <mxPoint x="75.00000000000011" y="210" as="sourcePoint" />
            <mxPoint x="135.0000000000001" y="210" as="targetPoint" />
          </mxGeometry>
        </mxCell>
      </root>
    </mxGraphModel>
  </diagram>
</mxfile>
